<svg width="27" height="27" viewBox="0 0 27 27" fill="none" xmlns="http://www.w3.org/2000/svg">
    <g opacity="0.8" clip-path="url(#clip0_61_456)">
        <path
            d="M25.1477 14.0701L19.9502 11.6776V4.82258C19.9478 4.67876 19.9041 4.53866 19.8243 4.41899C19.7446 4.29931 19.632 4.20509 19.5002 4.14758L13.8752 1.56008C13.7765 1.51439 13.669 1.49072 13.5602 1.49072C13.4514 1.49072 13.3439 1.51439 13.2452 1.56008L7.6202 4.14758C7.49001 4.20783 7.37984 4.30415 7.30274 4.42512C7.22563 4.54609 7.18484 4.68663 7.1852 4.83008V11.6851L2.0102 14.0701C1.88001 14.1303 1.76984 14.2266 1.69274 14.3476C1.61563 14.4686 1.57484 14.6091 1.5752 14.7526V22.0876C1.57484 22.231 1.61563 22.3716 1.69274 22.4925C1.76984 22.6135 1.88001 22.7098 2.0102 22.7701L7.6352 25.3576C7.73393 25.4033 7.84141 25.4269 7.9502 25.4269C8.05899 25.4269 8.16647 25.4033 8.2652 25.3576L13.5752 22.9126L18.8852 25.3576C18.9839 25.4033 19.0914 25.4269 19.2002 25.4269C19.309 25.4269 19.4165 25.4033 19.5152 25.3576L25.1402 22.7701C25.2704 22.7098 25.3806 22.6135 25.4577 22.4925C25.5348 22.3716 25.5756 22.231 25.5752 22.0876V14.7526C25.5762 14.6099 25.5365 14.47 25.4608 14.3491C25.3851 14.2282 25.2765 14.1314 25.1477 14.0701ZM23.0402 14.7526L19.2077 16.5001L15.3752 14.7526L19.2077 12.9901L23.0402 14.7526ZM13.5752 3.06008L17.4077 4.82258L13.5752 6.58508L9.7502 4.82258L13.5752 3.06008ZM7.9502 12.9826L11.7827 14.7451L7.9502 16.5001L4.1177 14.7526L7.9502 12.9826ZM12.8252 21.6001L7.9502 23.8501L3.0752 21.6001V15.9226L7.6352 18.0001C7.73189 18.0435 7.83669 18.066 7.9427 18.066C8.04871 18.066 8.15351 18.0435 8.2502 18.0001L12.8102 15.9001L12.8252 21.6001ZM8.7002 11.6776V6.00008L13.2602 8.10008C13.3589 8.14577 13.4664 8.16944 13.5752 8.16944C13.684 8.16944 13.7915 8.14577 13.8902 8.10008L18.4502 6.00008V11.6851L13.5752 13.9351L8.7002 11.6776ZM24.0827 21.6076L19.2077 23.8576L14.3252 21.6076V15.9151L18.8927 18.0001C18.9884 18.0425 19.0918 18.0643 19.1964 18.0643C19.3011 18.0643 19.4045 18.0425 19.5002 18.0001L24.0602 15.9001L24.0827 21.6076Z"
            fill="#F8F8F8" />
    </g>
    <defs>
        <clipPath id="clip0_61_456">
            <rect width="27" height="27" fill="white" />
        </clipPath>
    </defs>
</svg>
    