<svg width="50" height="50" viewBox="0 0 50 50" fill="none" xmlns="http://www.w3.org/2000/svg">
<g clip-path="url(#clip0_61_472)">
<path d="M14.2973 36.8751C13.6854 36.876 13.0945 36.6517 12.6373 36.2451L-0.0126953 25.0001L13.3398 13.1301C13.8375 12.7043 14.4824 12.4909 15.1358 12.5356C15.7893 12.5804 16.3991 12.8798 16.834 13.3695C17.269 13.8592 17.4944 14.5 17.4619 15.1542C17.4293 15.8083 17.1413 16.4236 16.6598 16.8676L7.51231 25.0001L15.9573 32.5051C16.3367 32.8417 16.6047 33.2858 16.7258 33.7784C16.8469 34.2709 16.8152 34.7887 16.6351 35.2628C16.455 35.737 16.1349 36.1452 15.7174 36.4331C15.2998 36.7211 14.8045 36.8752 14.2973 36.8751ZM36.6598 36.8701L50.0123 25.0001L37.3623 13.7551C36.8667 13.3148 36.2165 13.0895 35.5547 13.1286C34.8929 13.1678 34.2738 13.4682 33.8336 13.9638C33.3933 14.4595 33.168 15.1097 33.2071 15.7714C33.2463 16.4332 33.5467 17.0523 34.0423 17.4926L42.4873 25.0001L33.3398 33.1301C32.8439 33.5703 32.5431 34.1896 32.5037 34.8516C32.4643 35.5136 32.6895 36.1641 33.1298 36.6601C33.5701 37.156 34.1893 37.4568 34.8513 37.4962C35.5133 37.5356 36.1638 37.3103 36.6598 36.8701ZM24.9648 40.4126L29.9648 10.4126C30.0287 10.0847 30.0263 9.74736 29.9577 9.42044C29.8891 9.09353 29.7556 8.78368 29.5652 8.5092C29.3748 8.23473 29.1314 8.00119 28.8492 7.82238C28.567 7.64358 28.2519 7.52314 27.9224 7.46816C27.5929 7.41319 27.2558 7.42481 26.9309 7.50233C26.6059 7.57986 26.2998 7.72171 26.0307 7.91951C25.7615 8.11731 25.5347 8.36706 25.3636 8.65399C25.1926 8.94092 25.0808 9.25922 25.0348 9.59008L20.0348 39.5901C19.9709 39.9179 19.9733 40.2553 20.0419 40.5822C20.1105 40.9091 20.244 41.219 20.4344 41.4935C20.6248 41.7679 20.8682 42.0015 21.1504 42.1803C21.4326 42.3591 21.7477 42.4795 22.0772 42.5345C22.4067 42.5895 22.7438 42.5779 23.0688 42.5003C23.3937 42.4228 23.6998 42.281 23.969 42.0832C24.2381 41.8853 24.465 41.6356 24.636 41.3487C24.807 41.0617 24.9188 40.7435 24.9648 40.4126Z" fill="#00C1AC"/>
</g>
<defs>
<clipPath id="clip0_61_472">
<rect width="50" height="50" fill="white"/>
</clipPath>
</defs>
</svg>
