<svg width="50" height="50" viewBox="0 0 50 50" fill="none" xmlns="http://www.w3.org/2000/svg">
    <path d="M27.0833 29.1667L22.9167 33.3333M14.5833 25L25 35.4167L21.875 38.5417C21.1951 39.244 20.3823 39.804 19.4839 40.189C18.5854 40.574 17.6193 40.7764 16.6419 40.7843C15.6645 40.7923 14.6952 40.6056 13.7906 40.2352C12.8861 39.8648 12.0642 39.3181 11.3731 38.6269C10.6819 37.9358 10.1352 37.1139 9.76479 36.2094C9.3944 35.3048 9.20773 34.3355 9.21567 33.3581C9.2236 32.3807 9.42598 31.4146 9.81101 30.5161C10.196 29.6177 10.756 28.8049 11.4583 28.125L14.5833 25ZM35.4167 25L25 14.5833L28.125 11.4583C28.8049 10.756 29.6177 10.196 30.5161 9.81101C31.4146 9.42598 32.3807 9.2236 33.3581 9.21567C34.3355 9.20773 35.3048 9.3944 36.2094 9.76479C37.1139 10.1352 37.9358 10.6819 38.6269 11.3731C39.3181 12.0642 39.8648 12.8861 40.2352 13.7906C40.6056 14.6952 40.7923 15.6645 40.7843 16.6419C40.7764 17.6193 40.574 18.5854 40.189 19.4839C39.804 20.3823 39.244 21.1951 38.5417 21.875L35.4167 25ZM6.25 43.75L11.4583 38.5417L6.25 43.75ZM38.5417 11.4583L43.75 6.25L38.5417 11.4583ZM20.8333 22.9167L16.6667 27.0833L20.8333 22.9167Z" stroke="#00C1AC" stroke-width="4.16667" stroke-linecap="round" stroke-linejoin="round"/>
    </svg>
    