<svg width="50" height="56" viewBox="0 0 50 56" fill="none" xmlns="http://www.w3.org/2000/svg">
    <path
        d="M35.4967 0C36.6944 0 37.8431 0.526784 38.6901 1.46447C39.537 2.40215 40.0128 3.67392 40.0128 5V45C40.0128 46.3261 39.537 47.5979 38.6901 48.5355C37.8431 49.4732 36.6944 50 35.4967 50H12.916C11.7183 50 10.5696 49.4732 9.72265 48.5355C8.87571 47.5979 8.3999 46.3261 8.3999 45V5C8.3999 3.67392 8.87571 2.40215 9.72265 1.46447C10.5696 0.526784 11.7183 0 12.916 0L35.4967 0ZM36.8515 38.47H11.5612V45C11.5612 45.3978 11.7039 45.7794 11.958 46.0607C12.2121 46.342 12.5567 46.5 12.916 46.5H35.4967C35.856 46.5 36.2006 46.342 36.4547 46.0607C36.7088 45.7794 36.8515 45.3978 36.8515 45V38.47ZM24.2064 40C24.8052 40 25.3796 40.2634 25.803 40.7322C26.2265 41.2011 26.4644 41.837 26.4644 42.5C26.4644 43.163 26.2265 43.7989 25.803 44.2678C25.3796 44.7366 24.8052 45 24.2064 45C23.6075 45 23.0331 44.7366 22.6097 44.2678C22.1862 43.7989 21.9483 43.163 21.9483 42.5C21.9483 41.837 22.1862 41.2011 22.6097 40.7322C23.0331 40.2634 23.6075 40 24.2064 40ZM35.4967 3.5H12.916C12.5567 3.5 12.2121 3.65804 11.958 3.93934C11.7039 4.22064 11.5612 4.60218 11.5612 5V34.97H36.8515V5C36.8515 4.60218 36.7088 4.22064 36.4547 3.93934C36.2006 3.65804 35.856 3.5 35.4967 3.5Z"
        fill="#00C1AC" />
    <path
        d="M32.9644 26.5168L31.855 16.5168C31.8144 16.1335 31.6328 15.779 31.3455 15.5221C31.0582 15.2651 30.6858 15.124 30.3003 15.1262H27.941C27.7302 14.2362 27.2252 13.4433 26.5078 12.876C25.7903 12.3086 24.9025 12 23.9878 12C23.0732 12 22.1853 12.3086 21.4679 12.876C20.7505 13.4433 20.2455 14.2362 20.0347 15.1262H17.6753C17.2899 15.124 16.9174 15.2651 16.6302 15.5221C16.3429 15.779 16.1613 16.1335 16.1206 16.5168L15.0113 26.5168C14.9847 26.7343 15.0052 26.9549 15.0712 27.1638C15.1373 27.3727 15.2474 27.565 15.3941 27.7277C15.5403 27.892 15.7196 28.0235 15.9202 28.1137C16.1208 28.2039 16.3382 28.2508 16.5581 28.2512H31.4175C31.6375 28.2508 31.8548 28.2039 32.0554 28.1137C32.256 28.0235 32.4353 27.892 32.5816 27.7277C32.7283 27.565 32.8384 27.3727 32.9045 27.1638C32.9705 26.9549 32.9909 26.7343 32.9644 26.5168ZM23.9878 13.8762C24.4018 13.8761 24.8073 13.9936 25.1572 14.2149C25.5071 14.4361 25.787 14.7521 25.9644 15.1262H22.0113C22.1887 14.7521 22.4686 14.4361 22.8185 14.2149C23.1684 13.9936 23.5739 13.8761 23.9878 13.8762ZM16.9097 26.3762L17.9488 17.0012H19.9253V18.5637C19.9253 18.8123 20.0241 19.0508 20.1999 19.2266C20.3757 19.4024 20.6142 19.5012 20.8628 19.5012C21.1115 19.5012 21.3499 19.4024 21.5257 19.2266C21.7016 19.0508 21.8003 18.8123 21.8003 18.5637V17.0012H26.1753V18.5637C26.1753 18.8123 26.2741 19.0508 26.4499 19.2266C26.6257 19.4024 26.8642 19.5012 27.1128 19.5012C27.3615 19.5012 27.5999 19.4024 27.7757 19.2266C27.9516 19.0508 28.0503 18.8123 28.0503 18.5637V17.0012H30.0269L31.066 26.3762H16.9097Z"
        fill="#00C1AC" />
</svg>
    