<svg width="50" height="50" viewBox="0 0 50 50" fill="none" xmlns="http://www.w3.org/2000/svg">
    <path d="M29.1665 6.81025C29.1665 5.34984 27.9832 4.1665 26.5228 4.1665H23.479C22.0165 4.1665 20.8332 5.34984 20.8332 6.81025C20.8332 8.01442 20.0082 9.04775 18.8853 9.48942C18.7082 9.56025 18.5311 9.63525 18.3582 9.71025C17.2519 10.1894 15.9373 10.0436 15.0832 9.1915C14.5874 8.69611 13.9153 8.41783 13.2144 8.41783C12.5136 8.41783 11.8414 8.69611 11.3457 9.1915L9.1915 11.3457C8.69611 11.8414 8.41783 12.5136 8.41783 13.2144C8.41783 13.9153 8.69611 14.5874 9.1915 15.0832C10.0457 15.9373 10.1915 17.2498 9.70817 18.3582C9.63223 18.5326 9.5593 18.7083 9.48942 18.8853C9.04775 20.0082 8.01442 20.8332 6.81025 20.8332C5.34984 20.8332 4.1665 22.0165 4.1665 23.4769V26.5228C4.1665 27.9832 5.34984 29.1665 6.81025 29.1665C8.01442 29.1665 9.04775 29.9915 9.48942 31.1144C9.56025 31.2915 9.63525 31.4686 9.70817 31.6415C10.1894 32.7478 10.0436 34.0623 9.1915 34.9165C8.69611 35.4122 8.41783 36.0844 8.41783 36.7853C8.41783 37.4861 8.69611 38.1583 9.1915 38.654L11.3457 40.8082C11.8414 41.3036 12.5136 41.5818 13.2144 41.5818C13.9153 41.5818 14.5874 41.3036 15.0832 40.8082C15.9373 39.954 17.2498 39.8082 18.3582 40.2894C18.5311 40.3665 18.7082 40.4394 18.8853 40.5103C20.0082 40.9519 20.8332 41.9853 20.8332 43.1894C20.8332 44.6498 22.0165 45.8332 23.4769 45.8332H26.5228C27.9832 45.8332 29.1665 44.6498 29.1665 43.1894C29.1665 41.9853 29.9915 40.9519 31.1144 40.5082C31.2915 40.4394 31.4686 40.3665 31.6415 40.2915C32.7478 39.8082 34.0623 39.9561 34.9144 40.8082C35.1599 41.0538 35.4514 41.2486 35.7722 41.3815C36.0931 41.5145 36.4369 41.5829 36.7842 41.5829C37.1315 41.5829 37.4754 41.5145 37.7962 41.3815C38.117 41.2486 38.4085 41.0538 38.654 40.8082L40.8082 38.654C41.3036 38.1583 41.5818 37.4861 41.5818 36.7853C41.5818 36.0844 41.3036 35.4122 40.8082 34.9165C39.954 34.0623 39.8082 32.7498 40.2894 31.6415C40.3665 31.4686 40.4394 31.2915 40.5103 31.1144C40.9519 29.9915 41.9853 29.1665 43.1894 29.1665C44.6498 29.1665 45.8332 27.9832 45.8332 26.5228V23.479C45.8332 22.0186 44.6498 20.8353 43.1894 20.8353C41.9853 20.8353 40.9519 20.0103 40.5082 18.8873C40.4384 18.7104 40.3654 18.5346 40.2894 18.3603C39.8103 17.254 39.9561 15.9394 40.8082 15.0853C41.3036 14.5895 41.5818 13.9173 41.5818 13.2165C41.5818 12.5157 41.3036 11.8435 40.8082 11.3478L38.654 9.19359C38.1583 8.69819 37.4861 8.41991 36.7853 8.41991C36.0844 8.41991 35.4122 8.69819 34.9165 9.19359C34.0623 10.0478 32.7498 10.1936 31.6415 9.71234C31.4671 9.63569 31.2914 9.56206 31.1144 9.4915C29.9915 9.04775 29.1665 8.01442 29.1665 6.81234V6.81025Z" stroke="#00C1AC" stroke-width="4.16667"/>
    <path d="M20.3751 20.625C20.3751 19.9288 20.6516 19.2611 21.1439 18.7689C21.6362 18.2766 22.3039 18 23.0001 18H26.9376C27.6338 18 28.3015 18.2766 28.7938 18.7689C29.2861 19.2611 29.5627 19.9288 29.5627 20.625V21.5H20.3751V20.625ZM16 25.4376L24.5379 27.5722C24.677 27.6072 24.8232 27.6072 24.9623 27.5722L33.5002 25.4376V31.1252C33.5002 31.3572 33.408 31.5798 33.2439 31.7439C33.0798 31.908 32.8573 32.0002 32.6252 32.0002H16.875C16.6429 32.0002 16.4204 31.908 16.2563 31.7439C16.0922 31.5798 16 31.3572 16 31.1252V25.4376Z" stroke="#00C1AC" stroke-width="2" stroke-linecap="round" stroke-linejoin="round"/>
    <path d="M33.5002 26.3126V22.375C33.5002 22.1429 33.408 21.9204 33.2439 21.7563C33.0798 21.5922 32.8573 21.5 32.6252 21.5H16.875C16.6429 21.5 16.4204 21.5922 16.2563 21.7563C16.0922 21.9204 16 22.1429 16 22.375V26.3126" stroke="#00C1AC" stroke-width="2" stroke-linecap="round" stroke-linejoin="round"/>
    <path d="M25.8438 24.5625C25.8438 24.8526 25.7285 25.1308 25.5234 25.3359C25.3183 25.541 25.0401 25.6563 24.75 25.6563C24.4599 25.6563 24.1817 25.541 23.9766 25.3359C23.7715 25.1308 23.6562 24.8526 23.6562 24.5625C23.6562 24.2724 23.7715 23.9942 23.9766 23.7891C24.1817 23.584 24.4599 23.4688 24.75 23.4688C25.0401 23.4688 25.3183 23.584 25.5234 23.7891C25.7285 23.9942 25.8438 24.2724 25.8438 24.5625Z" fill="#00C1AC"/>
    </svg>
    