<svg width="164" height="188" viewBox="0 0 164 188" fill="none" xmlns="http://www.w3.org/2000/svg">
    <g filter="url(#filter0_d_61_405)">
        <rect x="64" y="60" width="35.6522" height="60" rx="17.8261" fill="white" />
        <rect x="64.5" y="60.5" width="34.6522" height="59" rx="17.3261" stroke="black" />
    </g>
    <line x1="81.8911" y1="73.9131" x2="81.8911" y2="88.6957" stroke="black" />
    <g clip-path="url(#clip0_61_405)">
        <path
            d="M81.5 107.205C81.267 107.205 81.034 107.116 80.8564 106.939L75.2667 101.349C74.9111 100.993 74.9111 100.417 75.2667 100.061C75.6221 99.7061 76.1985 99.7061 76.5541 100.061L81.5 105.008L86.4458 100.062C86.8014 99.7062 87.3778 99.7062 87.7332 100.062C88.0889 100.417 88.0889 100.994 87.7332 101.349L82.1435 106.939C81.9658 107.117 81.7329 107.205 81.5 107.205Z"
            fill="black" />
    </g>
    <defs>
        <filter id="filter0_d_61_405" x="0" y="0" width="163.652" height="188"
            filterUnits="userSpaceOnUse" color-interpolation-filters="sRGB">
            <feFlood flood-opacity="0" result="BackgroundImageFix" />
            <feColorMatrix in="SourceAlpha" type="matrix"
                values="0 0 0 0 0 0 0 0 0 0 0 0 0 0 0 0 0 0 127 0" result="hardAlpha" />
            <feOffset dy="4" />
            <feGaussianBlur stdDeviation="32" />
            <feComposite in2="hardAlpha" operator="out" />
            <feColorMatrix type="matrix"
                values="0 0 0 0 0.156863 0 0 0 0 0.172549 0 0 0 0 0.427451 0 0 0 0.3 0" />
            <feBlend mode="normal" in2="BackgroundImageFix" result="effect1_dropShadow_61_405" />
            <feBlend mode="normal" in="SourceGraphic" in2="effect1_dropShadow_61_405" result="shape" />
        </filter>
        <clipPath id="clip0_61_405">
            <rect width="13" height="13" fill="white" transform="translate(75 97)" />
        </clipPath>
    </defs>
</svg>
    