<svg width="38" height="48" viewBox="0 0 38 48" fill="none" xmlns="http://www.w3.org/2000/svg">
    <g filter="url(#filter0_d_150_3538)">
    <path fill-rule="evenodd" clip-rule="evenodd" d="M25.4085 27.552L28.3059 38.4708L24.1341 34.9162L22.5379 40L19.9356 30.3219L21.1697 28.3099L24.6908 30.9926L25.4085 27.552ZM18.8558 5.10395C20.8327 5.09333 22.7682 5.66965 24.4172 6.75992C26.0663 7.85019 27.3546 9.40535 28.1191 11.2284C28.8836 13.0515 29.0898 15.0604 28.7116 17.0008C28.3335 18.9412 27.3879 20.7256 25.9948 22.1282C24.6016 23.5307 22.8235 24.4882 20.8858 24.8795C18.948 25.2707 16.9377 25.078 15.1095 24.3258C13.2814 23.5736 11.7176 22.2957 10.6162 20.6541C9.51489 19.0124 8.92557 17.0808 8.92289 15.104C8.91933 12.4565 9.96715 9.91597 11.836 8.0408C13.7049 6.16563 16.2419 5.10928 18.8893 5.10395H18.8558ZM20.1301 12.2736C20.0966 12.9846 20.063 13.8363 20.063 14.5875V15.171C20.063 16.1502 20.063 17.2233 20.063 18.008C20.0535 18.3772 20.0647 18.7467 20.0966 19.1147C20.4856 19.1818 21.1697 19.2153 21.4983 19.2421H21.6593H21.8874L21.9544 19.4702L22.0148 19.7652L22.1154 20.2213H21.6593C21.3116 20.1875 20.9621 20.1762 20.613 20.1878C20.0295 20.1878 19.3119 20.1878 18.9229 20.1878C18.5339 20.1878 17.7492 20.1878 17.1321 20.1878C16.7607 20.1763 16.3889 20.1875 16.0188 20.2213H15.5627L15.6633 19.7652L15.7304 19.5037V19.2086H15.9853C16.1194 19.2086 16.5084 19.1482 16.9309 19.1147C17.3535 19.0812 17.6016 19.0476 17.8095 19.0476C17.8095 18.7525 17.8095 18.3769 17.8095 17.9745V12.5285C17.7948 12.2806 17.7948 12.032 17.8095 11.784C17.4205 11.784 16.9309 11.8779 16.5419 11.945L16.0859 12.0054H15.8243L15.7304 11.7505L15.6298 11.4554L15.5024 11.0932L15.8578 11.0329C16.2468 10.9323 17.5547 10.5097 18.7888 10.1207L19.7009 9.82563L20.224 9.66463L20.157 10.1811C20.157 10.5433 20.0899 11.2944 20.063 12.1932L20.1301 12.2736ZM18.8558 0L21.0087 3.35345L24.0402 0.938983L24.8853 4.78203L28.5674 3.58151L28.0778 7.45808L31.9276 7.58551L30.1301 11.0731L33.7183 12.5084L30.8478 15.1912L33.7183 17.7666L30.1033 19.2958L31.9276 22.6895L28.0108 22.884L28.5674 26.6935L24.825 25.5533L24.0402 29.336L20.9081 26.9551L18.8558 30.1811L16.7365 26.8276L13.7116 29.2421L12.833 25.3991L9.17775 26.5996L9.66734 22.723L5.79077 22.5956L7.58151 19.108L4 17.6727L6.89739 14.9899L4 12.4145L7.61503 10.8786L5.79077 7.52513L9.73444 7.33064L9.17775 3.52113L12.947 4.69483L13.7317 0.912129L16.8572 3.29307L18.8558 0ZM18.8558 4.13815C21.0235 4.1408 23.1418 4.78584 24.943 5.9918C26.7443 7.19776 28.1477 8.91052 28.976 10.9137C29.8043 12.9169 30.0204 15.1206 29.5968 17.2465C29.1733 19.3724 28.1292 21.3251 26.5964 22.8579C25.0636 24.3907 23.1109 25.4348 20.985 25.8584C18.8591 26.2819 16.6554 26.0659 14.6522 25.2376C12.649 24.4093 10.9362 23.0058 9.73026 21.2046C8.52431 19.4033 7.87926 17.285 7.87661 15.1174C7.87485 13.675 8.15762 12.2466 8.70875 10.9137C9.25988 9.58085 10.0686 8.36983 11.0884 7.34997C12.1083 6.3301 13.3193 5.52142 14.6522 4.97029C15.985 4.41916 17.4135 4.13638 18.8558 4.13815ZM12.2763 27.4246L9.40577 38.1556L12.8934 35.3253L15.1737 39.6915L17.7156 30.2415L16.5151 28.3501L13.0879 31.0329L12.2763 27.4246Z" fill="white"/>
    </g>
    <defs>
    <filter id="filter0_d_150_3538" x="0" y="0" width="37.7183" height="48" filterUnits="userSpaceOnUse" color-interpolation-filters="sRGB">
    <feFlood flood-opacity="0" result="BackgroundImageFix"/>
    <feColorMatrix in="SourceAlpha" type="matrix" values="0 0 0 0 0 0 0 0 0 0 0 0 0 0 0 0 0 0 127 0" result="hardAlpha"/>
    <feOffset dy="4"/>
    <feGaussianBlur stdDeviation="2"/>
    <feComposite in2="hardAlpha" operator="out"/>
    <feColorMatrix type="matrix" values="0 0 0 0 0 0 0 0 0 0 0 0 0 0 0 0 0 0 0.25 0"/>
    <feBlend mode="normal" in2="BackgroundImageFix" result="effect1_dropShadow_150_3538"/>
    <feBlend mode="normal" in="SourceGraphic" in2="effect1_dropShadow_150_3538" result="shape"/>
    </filter>
    </defs>
    </svg>
    