<svg width="48" height="41" viewBox="0 0 48 41" fill="none" xmlns="http://www.w3.org/2000/svg">
    <g filter="url(#filter0_d_150_3536)">
    <path fill-rule="evenodd" clip-rule="evenodd" d="M32.3523 12.6302H41.8551C42.1365 12.6293 42.4152 12.684 42.6754 12.791C42.9356 12.8981 43.1721 13.0554 43.3714 13.2541C43.5706 13.4527 43.7287 13.6887 43.8366 13.9485C43.9445 14.2084 44 14.487 44 14.7683V15.8951C43.9947 16.4623 43.767 17.0048 43.3659 17.4059C42.9648 17.807 42.4223 18.0347 41.8551 18.04H41.3935C41.6104 18.2419 41.7828 18.4869 41.8996 18.7592C42.0165 19.0315 42.0753 19.3252 42.0723 19.6215V20.7076C42.0732 20.9889 42.0186 21.2677 41.9115 21.5279C41.8045 21.7881 41.6471 22.0246 41.4485 22.2238C41.2498 22.4231 41.0138 22.5812 40.754 22.689C40.4941 22.7969 40.2155 22.8525 39.9342 22.8525H39.6016C39.8251 23.0518 40.0051 23.2951 40.13 23.5673C40.255 23.8395 40.3224 24.1345 40.3279 24.434V25.554C40.3226 26.1212 40.0949 26.6637 39.6938 27.0648C39.2927 27.4659 38.7502 27.6936 38.183 27.6989H37.9386C38.1659 27.8963 38.3496 28.1389 38.4781 28.4112C38.6067 28.6835 38.6772 28.9794 38.6852 29.2804V30.4004C38.6748 30.966 38.4455 31.5055 38.0455 31.9055C37.6455 32.3055 37.1059 32.5348 36.5403 32.5453H20.5146C19.8815 32.5399 19.2762 32.2842 18.8311 31.8339C18.3859 31.3837 18.1371 30.7756 18.1389 30.1425V15.0263C18.1371 14.3931 18.3859 13.785 18.8311 13.3348C19.2762 12.8845 19.8815 12.6288 20.5146 12.6234H22.4287C33.1125 8.49651 27.6349 0.615995 31.5242 0.0254652C31.899 -0.0084884 32.2762 -0.0084884 32.651 0.0254652C33.8388 0.0254652 34.5651 1.01645 34.7959 2.17036C35.4747 5.63208 34.6601 9.12776 32.3523 12.6234V12.6302ZM15.4374 12.6302H5.70384C5.4787 12.6293 5.25562 12.6732 5.04762 12.7593C4.83961 12.8455 4.65083 12.9721 4.49227 13.132C4.3337 13.2918 4.20852 13.4816 4.12403 13.6903C4.03954 13.8989 3.99742 14.1224 4.00012 14.3475V30.8416C4.00367 31.2941 4.18503 31.7271 4.50504 32.0472C4.82506 32.3672 5.25806 32.5485 5.71062 32.5521H15.4374C15.8858 32.5432 16.3129 32.3593 16.6274 32.0397C16.942 31.7201 17.1191 31.29 17.1207 30.8416V14.3475C17.1234 14.1244 17.0819 13.903 16.9986 13.696C16.9153 13.489 16.7918 13.3006 16.6354 13.1416C16.4789 12.9826 16.2924 12.8561 16.0868 12.7695C15.8812 12.6829 15.6605 12.6379 15.4374 12.637V12.6302ZM14.0798 27.7668C14.445 27.7668 14.802 27.875 15.1056 28.0779C15.4092 28.2808 15.6458 28.5691 15.7856 28.9065C15.9253 29.2438 15.9619 29.615 15.8906 29.9732C15.8194 30.3313 15.6436 30.6603 15.3853 30.9185C15.1271 31.1767 14.7982 31.3525 14.44 31.4238C14.0819 31.495 13.7107 31.4584 13.3733 31.3187C13.036 31.179 12.7476 30.9424 12.5447 30.6387C12.3419 30.3351 12.2336 29.9782 12.2336 29.613C12.2336 29.1233 12.4281 28.6537 12.7743 28.3075C13.1206 27.9613 13.5902 27.7668 14.0798 27.7668Z" fill="white"/>
    </g>
    <defs>
    <filter id="filter0_d_150_3536" x="0" y="0" width="48" height="40.552" filterUnits="userSpaceOnUse" color-interpolation-filters="sRGB">
    <feFlood flood-opacity="0" result="BackgroundImageFix"/>
    <feColorMatrix in="SourceAlpha" type="matrix" values="0 0 0 0 0 0 0 0 0 0 0 0 0 0 0 0 0 0 127 0" result="hardAlpha"/>
    <feOffset dy="4"/>
    <feGaussianBlur stdDeviation="2"/>
    <feComposite in2="hardAlpha" operator="out"/>
    <feColorMatrix type="matrix" values="0 0 0 0 0 0 0 0 0 0 0 0 0 0 0 0 0 0 0.25 0"/>
    <feBlend mode="normal" in2="BackgroundImageFix" result="effect1_dropShadow_150_3536"/>
    <feBlend mode="normal" in="SourceGraphic" in2="effect1_dropShadow_150_3536" result="shape"/>
    </filter>
    </defs>
    </svg>
    