<svg width="34" height="48" viewBox="0 0 34 48" fill="none" xmlns="http://www.w3.org/2000/svg">
    <g filter="url(#filter0_d_150_3537)">
    <path fill-rule="evenodd" clip-rule="evenodd" d="M10.1798 14.9423C10.3406 15.4569 10.5561 15.9528 10.8226 16.4216L10.0484 17.3824C9.93578 17.5369 9.88098 17.726 9.89362 17.9168C9.90625 18.1076 9.98551 18.2879 10.1175 18.4262L11.424 19.705C11.4843 19.7782 11.559 19.8382 11.6435 19.8813C11.728 19.9244 11.8204 19.9497 11.9151 19.9555C12.0097 19.9613 12.1046 19.9477 12.1937 19.9153C12.2829 19.8829 12.3644 19.8325 12.4332 19.7672L13.3733 19.0276C13.8593 19.3034 14.3769 19.5192 14.9148 19.6704L15.053 20.8801C15.0803 21.0667 15.1719 21.2379 15.312 21.3642C15.4521 21.4904 15.6319 21.5637 15.8203 21.5714H17.6729C17.8643 21.5739 18.0496 21.5041 18.1919 21.376C18.3341 21.2478 18.4228 21.0708 18.4402 20.8801L18.5784 19.7327C19.1541 19.5736 19.707 19.3413 20.2236 19.0414L21.1291 19.7327C21.2717 19.8628 21.4579 19.935 21.651 19.935C21.8441 19.935 22.0303 19.8628 22.1729 19.7327L23.4448 18.4262C23.5894 18.2941 23.6758 18.11 23.6848 17.9143C23.6939 17.7186 23.625 17.5273 23.4932 17.3824L22.8019 16.4769C23.1171 15.9805 23.3505 15.4367 23.4932 14.8662L24.5992 14.728C24.7924 14.7173 24.9735 14.6306 25.103 14.4868C25.2325 14.3431 25.2998 14.154 25.2904 13.9607V12.1427C25.2998 11.9495 25.2325 11.7604 25.103 11.6166C24.9735 11.4729 24.7924 11.3862 24.5992 11.3755L23.5277 11.2372C23.3655 10.6735 23.1333 10.1325 22.8365 9.62662L23.5277 8.81783C23.6484 8.66784 23.7082 8.478 23.6954 8.28594C23.6826 8.09387 23.5981 7.91362 23.4586 7.78096L22.1867 6.46762C22.0434 6.33889 21.8575 6.26768 21.6648 6.26768C21.4722 6.26768 21.2863 6.33889 21.1429 6.46762L20.3342 7.11047C19.8122 6.8019 19.2489 6.56915 18.6614 6.41922L18.5231 5.34088C18.5026 5.15025 18.412 4.97398 18.269 4.84628C18.126 4.71858 17.9406 4.64853 17.7489 4.64963H15.9378C15.7461 4.64853 15.5608 4.71858 15.4178 4.84628C15.2747 4.97398 15.1842 5.15025 15.1636 5.34088L15.0323 6.41922C14.4254 6.58367 13.8388 6.81553 13.2834 7.11047L12.447 6.46762C12.3101 6.33982 12.1297 6.26873 11.9424 6.26873C11.7551 6.26873 11.5748 6.33982 11.4378 6.46762L10.1314 7.78096C9.99862 7.91745 9.91877 8.09673 9.90611 8.2867C9.89344 8.47667 9.94879 8.66494 10.0622 8.81783L10.7535 9.69573C10.4912 10.2114 10.2783 10.7506 10.1175 11.3063L9.00463 11.4377C8.81633 11.4639 8.64346 11.556 8.51685 11.6978C8.39024 11.8396 8.31812 12.0218 8.31338 12.2119V14.0575C8.3221 14.2463 8.3956 14.4264 8.52149 14.5674C8.64739 14.7084 8.81799 14.8017 9.00463 14.8317L10.1798 14.9423ZM16.795 11.4169C17.1247 11.4197 17.4463 11.5203 17.7188 11.7059C17.9914 11.8915 18.2027 12.1539 18.326 12.4598C18.4494 12.7656 18.4792 13.1011 18.4116 13.4239C18.3441 13.7467 18.1823 14.0422 17.9467 14.2729C17.7111 14.5037 17.4123 14.6593 17.0882 14.7201C16.7641 14.7809 16.4292 14.7442 16.126 14.6145C15.8228 14.4848 15.5649 14.2681 15.385 13.9918C15.205 13.7154 15.1112 13.3918 15.1153 13.0621C15.1161 12.8434 15.1605 12.627 15.2456 12.4256C15.3308 12.2241 15.4551 12.0415 15.6113 11.8885C15.7676 11.7354 15.9527 11.615 16.1559 11.534C16.3591 11.4531 16.5763 11.4133 16.795 11.4169ZM29.59 12.7994C29.5907 10.7604 29.1041 8.75079 28.1707 6.93796C27.2373 5.12512 25.8842 3.56158 24.2241 2.37768C22.564 1.19377 20.645 0.423797 18.627 0.131842C16.609 -0.160112 14.5505 0.0344445 12.6229 0.699303C10.6954 1.36416 8.95461 2.48004 7.54571 3.954C6.13682 5.42796 5.10059 7.21731 4.52338 9.17291C3.94617 11.1285 3.84469 13.1937 4.2274 15.1965C4.6101 17.1993 5.46592 19.0816 6.72352 20.6866C8.23419 22.6238 9.61951 24.6556 10.871 26.7696V33.5161H22.6222V26.9009C23.896 24.7456 25.2971 22.6682 26.8181 20.6797C28.6028 18.4377 29.5772 15.6581 29.5831 12.7925L29.59 12.7994ZM16.795 3.26022C18.7556 3.26297 20.6714 3.84627 22.3009 4.93653C23.9304 6.02678 25.2005 7.57513 25.9511 9.38635C26.7017 11.1976 26.8991 13.1905 26.5185 15.1138C26.1378 17.0371 25.1961 18.8045 23.8122 20.1933C22.4282 21.582 20.6641 22.5299 18.7421 22.9172C16.8202 23.3045 14.8266 23.114 13.0127 22.3697C11.1989 21.6254 9.64615 20.3607 8.55025 18.735C7.45434 17.1093 6.8644 15.1955 6.85485 13.2349C6.85394 11.9293 7.11043 10.6363 7.60964 9.42993C8.10886 8.22353 8.84101 7.12735 9.76422 6.20414C10.6874 5.28093 11.7836 4.54878 12.99 4.04956C14.1964 3.55034 15.4894 3.29386 16.795 3.29477V3.26022ZM16.795 9.06667C17.5828 9.06942 18.352 9.30581 19.0054 9.7459C19.6588 10.186 20.1669 10.81 20.4656 11.539C20.7642 12.268 20.8398 13.0692 20.683 13.8411C20.5261 14.6131 20.1437 15.3212 19.5843 15.8759C19.0248 16.4305 18.3134 16.8067 17.5401 16.9568C16.7667 17.107 15.9662 17.0244 15.2399 16.7195C14.5135 16.4145 13.8939 15.901 13.4596 15.2438C13.0252 14.5866 12.7955 13.8153 12.7996 13.0275C12.8014 12.505 12.9062 11.9879 13.1081 11.506C13.3099 11.024 13.6048 10.5865 13.9759 10.2186C14.347 9.85071 14.7871 9.55962 15.2708 9.36196C15.7545 9.1643 16.2724 9.06394 16.795 9.06667ZM14.0784 37.6774C14.1715 38.3223 14.4938 38.9121 14.9864 39.3387C15.479 39.7653 16.1088 40 16.7604 40C17.4093 40.0006 18.0363 39.7654 18.5246 39.3381C19.0129 38.9108 19.3293 38.3206 19.4148 37.6774C20.2777 37.6319 21.091 37.2604 21.6903 36.638C22.2896 36.0156 22.6301 35.1888 22.6429 34.3249H10.8917C10.8958 35.1857 11.2288 36.0123 11.8225 36.6356C12.4162 37.2588 13.2257 37.6316 14.0853 37.6774H14.0784ZM16.795 10.3801C17.323 10.3828 17.8383 10.5422 18.2757 10.838C18.7131 11.1337 19.0529 11.5526 19.2521 12.0416C19.4513 12.5306 19.501 13.0677 19.3948 13.5849C19.2886 14.1021 19.0313 14.5762 18.6555 14.9472C18.2797 15.3181 17.8024 15.5692 17.2838 15.6687C16.7653 15.7682 16.2288 15.7116 15.7425 15.506C15.2561 15.3005 14.8417 14.9553 14.5516 14.5141C14.2615 14.0729 14.1088 13.5555 14.1129 13.0275C14.1184 12.3211 14.4039 11.6456 14.9067 11.1493C15.4094 10.653 16.0885 10.3764 16.795 10.3801ZM16.795 8.70033C17.6552 8.70308 18.4953 8.96094 19.2089 9.44128C19.9226 9.92162 20.4777 10.6029 20.804 11.3988C21.1304 12.1947 21.2133 13.0696 21.0423 13.9126C20.8713 14.7557 20.454 15.5291 19.8433 16.1349C19.2326 16.7408 18.4559 17.1519 17.6116 17.3162C16.7672 17.4805 15.893 17.3906 15.0997 17.0579C14.3064 16.7252 13.6296 16.1647 13.1549 15.4473C12.6803 14.7299 12.4291 13.8878 12.4332 13.0275C12.4441 11.8773 12.9083 10.7778 13.7249 9.96761C14.5415 9.15746 15.6447 8.7021 16.795 8.70033Z" fill="white"/>
    </g>
    <defs>
    <filter id="filter0_d_150_3537" x="0" y="0" width="33.5898" height="48" filterUnits="userSpaceOnUse" color-interpolation-filters="sRGB">
    <feFlood flood-opacity="0" result="BackgroundImageFix"/>
    <feColorMatrix in="SourceAlpha" type="matrix" values="0 0 0 0 0 0 0 0 0 0 0 0 0 0 0 0 0 0 127 0" result="hardAlpha"/>
    <feOffset dy="4"/>
    <feGaussianBlur stdDeviation="2"/>
    <feComposite in2="hardAlpha" operator="out"/>
    <feColorMatrix type="matrix" values="0 0 0 0 0 0 0 0 0 0 0 0 0 0 0 0 0 0 0.25 0"/>
    <feBlend mode="normal" in2="BackgroundImageFix" result="effect1_dropShadow_150_3537"/>
    <feBlend mode="normal" in="SourceGraphic" in2="effect1_dropShadow_150_3537" result="shape"/>
    </filter>
    </defs>
    </svg>
    