<svg width="21" height="21" viewBox="0 0 21 21" fill="none" xmlns="http://www.w3.org/2000/svg">
    <path fill-rule="evenodd" clip-rule="evenodd"
        d="M9.52726 0.0241626C7.06695 0.263385 4.81647 1.32345 3.06948 3.06606C1.43713 4.69431 0.441259 6.68965 0.0763427 9.06307C-0.0254476 9.72502 -0.0254476 11.2774 0.0763427 11.9393C0.441012 14.3112 1.42859 16.2917 3.06401 17.9309C4.69245 19.563 6.68802 20.5588 9.0617 20.9237C9.72373 21.0254 11.2763 21.0254 11.9383 20.9237C14.3104 20.559 16.2912 19.5716 17.9305 17.9363C19.5629 16.3081 20.5587 14.3127 20.9237 11.9393C21.0254 11.2774 21.0254 9.72502 20.9237 9.06307C20.559 6.69122 19.5714 4.7107 17.936 3.07152C16.3186 1.45042 14.2994 0.438427 11.9794 0.0862077C11.4659 0.00826095 10.0575 -0.0273636 9.52726 0.0241626ZM11.8356 1.72707C13.7325 2.02341 15.405 2.87417 16.7664 4.2355C18.1385 5.60748 18.9792 7.26832 19.2826 9.20688C19.3325 9.52586 19.3533 9.90671 19.3533 10.5012C19.3533 11.0957 19.3325 11.4765 19.2826 11.7955C18.9792 13.7341 18.1385 15.3949 16.7664 16.7669C15.3943 18.1389 13.7332 18.9794 11.7945 19.2828C11.1719 19.3802 9.82807 19.3802 9.20553 19.2828C7.26675 18.9794 5.60573 18.1389 4.23359 16.7669C2.86146 15.3949 2.02084 13.7341 1.71744 11.7955C1.62 11.1731 1.62 9.82934 1.71744 9.20688C2.02084 7.26832 2.86146 5.60748 4.23359 4.2355C5.74709 2.72214 7.54163 1.88609 9.78085 1.65114C10.1152 1.61605 11.4376 1.66495 11.8356 1.72707ZM14.2396 6.99142C14.1479 7.03078 13.1832 7.96483 11.5794 9.56707L9.06302 12.0809L8.00419 11.0292C7.42184 10.4507 6.88922 9.94891 6.82063 9.91411C6.39823 9.69971 5.92228 9.85379 5.71183 10.273C5.58843 10.5188 5.58156 10.7456 5.69071 10.9711C5.74306 11.0792 6.27605 11.6403 7.20092 12.5609C8.32805 13.6828 8.66399 13.9944 8.78999 14.0349C8.9992 14.1019 9.31674 14.0625 9.48436 13.9486C9.68223 13.8142 15.088 8.41422 15.2389 8.20019C15.3539 8.03731 15.3694 7.9827 15.3695 7.74146C15.3697 7.50339 15.3535 7.4448 15.2464 7.29264C15.0175 6.96771 14.5915 6.84025 14.2396 6.99142Z"
        fill="url(#paint0_linear_61_426)" />
    <defs>
        <linearGradient id="paint0_linear_61_426" x1="10.5" y1="0" x2="10.5" y2="21"
            gradientUnits="userSpaceOnUse">
            <stop stop-color="#00EB9D" />
            <stop offset="1" stop-color="#009B81" />
        </linearGradient>
    </defs>
</svg>
    