<svg width="76" height="76" viewBox="0 0 76 76" fill="none" xmlns="http://www.w3.org/2000/svg">
    <rect x="24.0415" width="56.8869" height="56.8869" rx="10.6663" transform="rotate(25 24.0415 0)" fill="url(#paint0_linear_403_1985)"/>
    <path d="M38.736 51.2071C38.6024 51.1487 38.4868 51.0543 38.403 50.9341L34.2395 45.4541L28.1602 45.8047C27.1672 45.8647 26.3119 45.1076 26.2524 44.1135C26.2516 44.1014 26.2507 44.0892 26.2503 44.0759C26.2365 43.6654 26.3522 43.263 26.5815 42.9227L30.1282 37.7846L28.0428 31.9424C27.7078 30.9755 28.2017 29.9164 29.1583 29.5504C29.5328 29.4034 29.9454 29.3879 30.3294 29.5067L36.1297 31.2098L40.8795 27.314C41.635 26.6724 42.7679 26.764 43.4105 27.52C43.6893 27.8475 43.8402 28.2643 43.8376 28.6933L43.909 34.8583L48.9558 38.2251C49.3645 38.4954 49.6455 38.922 49.7345 39.4042C49.8932 40.3203 49.3844 41.2207 48.5182 41.5583L42.7428 43.6773L41.8886 46.9392C41.7545 47.4258 41.2562 47.7178 40.7665 47.5928C40.2869 47.4659 40.001 46.9743 40.1284 46.4936L40.9728 43.2273C41.1363 42.6327 41.5738 42.1515 42.1506 41.9353L47.9488 39.7928L42.907 36.4153C42.3976 36.0692 42.1006 35.4861 42.1193 34.8711L42.039 28.7282L37.2144 32.6807C36.7548 33.0914 36.1178 33.2377 35.5252 33.0699L29.7249 31.3668L31.7846 37.1656C31.9917 37.7395 31.9078 38.3764 31.5615 38.8779L28.0148 44.0161L34.0881 43.6757C34.6955 43.6294 35.283 43.9034 35.638 44.3984L39.7939 49.8749C40.0445 50.2153 40.0344 50.6827 39.7693 51.0129C39.5118 51.3465 39.0594 51.4586 38.6751 51.2872L38.736 51.2071Z" fill="white"/>
    <defs>
    <linearGradient id="paint0_linear_403_1985" x1="52.4849" y1="0" x2="52.4849" y2="56.8869" gradientUnits="userSpaceOnUse">
    <stop stop-color="#00EB9D"/>
    <stop offset="1" stop-color="#009B81"/>
    </linearGradient>
    </defs>
    </svg>
    