<svg width="57" height="57" viewBox="0 0 57 57" fill="none" xmlns="http://www.w3.org/2000/svg">
    <rect width="56.8869" height="56.8869" rx="10.6663" fill="url(#paint0_linear_403_1987)"/>
    <path fill-rule="evenodd" clip-rule="evenodd" d="M40.2951 27.0471C40.2951 27.5413 39.8934 27.9431 39.3992 27.9431H39.3885V27.9218C38.8884 27.9218 38.4831 27.5176 38.4819 27.0175V27.0151V24.0025C38.4819 20.3843 36.5027 18.4051 32.8951 18.4051H24.0065C20.3966 18.4051 18.4056 20.3961 18.4056 24.0025V32.8911C18.4056 36.4868 20.3966 38.4778 24.003 38.4778H32.8916C36.4979 38.4778 38.4783 36.4868 38.4783 32.8911C38.4783 32.3909 38.8836 31.9844 39.385 31.9844C39.8863 31.9844 40.2916 32.3909 40.2916 32.8911C40.2951 37.4598 37.4603 40.2947 32.8951 40.2947H24.003C19.4271 40.2947 16.5923 37.4598 16.5923 32.8946V24.0061C16.5923 19.4267 19.4271 16.5918 24.003 16.5918H32.8916C37.4389 16.5918 40.2951 19.4267 40.2951 24.0025V27.0471ZM27.0377 29.9999L32.0342 25.0022C32.3815 24.6549 32.9444 24.6549 33.2917 25.0022C33.6389 25.3494 33.6389 25.9123 33.2917 26.2596L27.6658 31.8855C27.4987 32.0514 27.2723 32.145 27.0377 32.145C26.8006 32.145 26.5755 32.0514 26.4083 31.8855L23.596 29.0719C23.2488 28.7247 23.2488 28.1617 23.596 27.8145C23.9433 27.4673 24.5062 27.4673 24.8534 27.8145L27.0377 29.9999Z" fill="white"/>
    <defs>
    <linearGradient id="paint0_linear_403_1987" x1="28.4434" y1="0" x2="28.4434" y2="56.8869" gradientUnits="userSpaceOnUse">
    <stop stop-color="#00EB9D"/>
    <stop offset="1" stop-color="#009B81"/>
    </linearGradient>
    </defs>
    </svg>    
    